<svg viewBox="0 0 81 81" xmlns="http://www.w3.org/2000/svg" xml:space="preserve" style="fill-rule:evenodd;clip-rule:evenodd;stroke-linejoin:round;stroke-miterlimit:2"><circle cx="-268.755" cy="1152.91" r="28.803" style="fill:#f5f3eb" transform="translate(416.242 -1572.467) scale(1.39886)"/><path d="M-312.348 1303.79c0-.27-.227-.5-.507-.5h-9.132c-.28 0-.507.23-.507.5v37.66c0 .28.227.5.507.5h9.132c.28 0 .507-.22.507-.5v-37.66z" style="fill:#2a365e" transform="matrix(.98558 0 0 1 344.128 -1282.327)"/><path d="M-312.348 1303.79c0-.27-.227-.5-.507-.5h-9.132c-.28 0-.507.23-.507.5v37.66c0 .28.227.5.507.5h9.132c.28 0 .507-.22.507-.5v-37.66z" style="fill:#2a365e" transform="matrix(.98558 0 0 1 362.141 -1282.327)"/></svg>