<?xml version="1.0" encoding="UTF-8" standalone="no"?>
<!DOCTYPE svg PUBLIC "-//W3C//DTD SVG 1.1//EN" "http://www.w3.org/Graphics/SVG/1.1/DTD/svg11.dtd">
<svg width="100%" height="100%" viewBox="0 0 81 81" version="1.1" xmlns="http://www.w3.org/2000/svg" xmlns:xlink="http://www.w3.org/1999/xlink" xml:space="preserve" xmlns:serif="http://www.serif.com/" style="fill-rule:evenodd;clip-rule:evenodd;stroke-linejoin:round;stroke-miterlimit:2;">
    <g transform="matrix(1,0,0,1,341.789,-1176.54)">
        <g transform="matrix(1.39886,0,0,1.39886,74.4526,-395.927)">
            <circle cx="-268.755" cy="1152.91" r="28.803" style="fill:rgb(245,243,235);"/>
        </g>
        <g transform="matrix(1,0,0,1,1.0066,-1.58934e-10)">
            <g transform="matrix(0.98558,0,0,1,1.33274,-105.787)">
                <path d="M-312.348,1303.79C-312.348,1303.52 -312.575,1303.29 -312.855,1303.29L-321.987,1303.29C-322.267,1303.29 -322.494,1303.52 -322.494,1303.79L-322.494,1341.45C-322.494,1341.73 -322.267,1341.95 -321.987,1341.95L-312.855,1341.95C-312.575,1341.95 -312.348,1341.73 -312.348,1341.45L-312.348,1303.79Z" style="fill:rgb(42,54,94);"/>
            </g>
            <g transform="matrix(0.98558,0,0,1,19.3459,-105.787)">
                <path d="M-312.348,1303.79C-312.348,1303.52 -312.575,1303.29 -312.855,1303.29L-321.987,1303.29C-322.267,1303.29 -322.494,1303.52 -322.494,1303.79L-322.494,1341.45C-322.494,1341.73 -322.267,1341.95 -321.987,1341.95L-312.855,1341.95C-312.575,1341.95 -312.348,1341.73 -312.348,1341.45L-312.348,1303.79Z" style="fill:rgb(42,54,94);"/>
            </g>
        </g>
    </g>
</svg>
